<svg width="22" height="20" viewBox="0 0 22 20" fill="none" xmlns="http://www.w3.org/2000/svg">
<path fill-rule="evenodd" clip-rule="evenodd" d="M21 7.50627H16.21L11.82 0.936274C11.42 0.346274 10.55 0.346274 10.16 0.936274L5.77 7.50627H1C0.45 7.50627 0 7.95627 0 8.50627C0 8.59627 0.01 8.68627 0.04 8.77627L2.58 18.0463C2.81 18.8863 3.58 19.5063 4.5 19.5063H17.5C18.42 19.5063 19.19 18.8863 19.43 18.0463L21.97 8.77627L22 8.50627C22 7.95627 21.55 7.50627 21 7.50627ZM10.99 3.29627L13.8 7.50627H8.18L10.99 3.29627ZM9 13.5063C9 14.6063 9.9 15.5063 11 15.5063C12.1 15.5063 13 14.6063 13 13.5063C13 12.4063 12.1 11.5063 11 11.5063C9.9 11.5063 9 12.4063 9 13.5063Z" fill="#C8C8D3"/>
</svg>
