<svg width="20" height="20" viewBox="0 0 20 20" fill="none" xmlns="http://www.w3.org/2000/svg">
<path fill-rule="evenodd" clip-rule="evenodd" d="M19.8808 4.76957L17.3808 0.421739C17.2302 0.160121 16.9592 5.80463e-05 16.6667 0H3.33333C3.04084 5.80463e-05 2.7698 0.160121 2.61916 0.421739L0.119164 4.76957C0.0412392 4.90479 4.54727e-05 5.0596 -2.38643e-06 5.21739C-0.0032281 7.134 1.48241 8.69086 3.31916 8.69565H3.32583C4.14895 8.69784 4.94335 8.38009 5.55416 7.80435C6.81581 8.9942 8.73586 8.9942 9.9975 7.80435C11.2598 8.99683 13.1827 8.99683 14.445 7.80435C15.4222 8.72426 16.8273 8.95653 18.0291 8.39683C19.231 7.83714 20.0036 6.59071 20 5.21739C19.9999 5.0596 19.9588 4.90479 19.8808 4.76957Z" fill="#1AB65C"/>
<path fill-rule="evenodd" clip-rule="evenodd" d="M16.68 10.4348C15.9054 10.4354 15.1412 10.2484 14.4475 9.88867L14.435 9.89476C13.2523 10.5101 11.8832 10.6071 10.6317 10.1643C10.4149 10.0883 10.2033 9.99706 9.99833 9.89128L9.98917 9.89563C8.80689 10.5114 7.43771 10.6081 6.18667 10.1643C5.97018 10.0883 5.75887 9.99705 5.55417 9.89128C4.86174 10.2501 4.09892 10.4361 3.32583 10.4348C3.04898 10.432 2.7728 10.4058 2.5 10.3565V19.1304C2.5 19.6107 2.8731 20 3.33333 20H8.33333V14.7826H11.6667V20H16.6667C17.1269 20 17.5 19.6107 17.5 19.1304V10.353C17.2293 10.4036 16.955 10.431 16.68 10.4348Z" fill="#1AB65C"/>
</svg>
