<svg width="20" height="20" viewBox="0 0 20 20" fill="none" xmlns="http://www.w3.org/2000/svg">
<path fill-rule="evenodd" clip-rule="evenodd" d="M12.8842 11.6858C12.02 12.1933 11.0483 12.5 10 12.5C8.95167 12.5 7.98001 12.1933 7.11584 11.6858C4.07834 11.885 1.66667 14.4133 1.66667 17.5V18.9416L2.24584 19.1275C2.35751 19.1625 5.03167 20 10 20C14.9683 20 17.6425 19.1625 17.7542 19.1275L18.3333 18.9416V17.5C18.3333 14.4133 15.9217 11.885 12.8842 11.6858Z" fill="#C8C8D3"/>
<path fill-rule="evenodd" clip-rule="evenodd" d="M10 10.8333C12.8158 10.8333 15 7.6975 15 5C15 2.2425 12.7575 0 10 0C7.2425 0 5 2.2425 5 5C5 7.6975 7.18417 10.8333 10 10.8333Z" fill="#C8C8D3"/>
</svg>
